<?xml version="1.0" encoding="UTF-8" standalone="no"?>
<svg width="80px" height="27px" viewBox="0 0 80 27" version="1.1" xmlns="http://www.w3.org/2000/svg" xmlns:xlink="http://www.w3.org/1999/xlink">
    <!-- Generator: Sketch 47.1 (45422) - http://www.bohemiancoding.com/sketch -->
    <title>Logos/Visa</title>
    <desc>Created with Sketch.</desc>
    <defs></defs>
    <g id="Assets" stroke="none" stroke-width="1" fill="none" fill-rule="evenodd">
        <g id="00.-Assets" transform="translate(-130.000000, -292.000000)" fill="#FFFFFF">
            <g id="Logos/Visa" transform="translate(130.000000, 292.000000)">
                <path d="M39.6106746,0.476540289 L34.2660309,26.5899178 L27.8014636,26.5899178 L33.147088,0.476540289 L39.6106746,0.476540289 Z M66.8070657,17.3383388 L70.2094953,7.53242764 L72.1669098,17.3383388 L66.8070657,17.3383388 Z M74.0223347,26.5899178 L80,26.5899178 L74.7779399,0.476540289 L69.2636405,0.476540289 C68.0201527,0.476540289 66.9737794,1.23024671 66.5099231,2.39145948 L56.80964,26.5899178 L63.5988085,26.5899178 L64.9462471,22.6905303 L73.2387805,22.6905303 L74.0223347,26.5899178 Z M57.14699,18.0647408 C57.1754293,11.1737106 48.0306949,10.791448 48.0919867,7.71274018 C48.1120904,6.7766605 48.9652721,5.77927455 50.8329554,5.52477628 C51.7587065,5.40010304 54.3128578,5.29964319 57.2082817,6.69371673 L58.3409539,1.15348509 C56.7856136,0.566181381 54.784069,0 52.2941515,0 C45.9036248,0 41.4082401,3.54752046 41.3719553,8.63130378 C41.3307673,12.3910779 44.5841352,14.48734 47.028942,15.7381938 C49.5497505,17.0178977 50.3941062,17.8406381 50.3828285,18.9833044 C50.3656668,20.7354271 48.3714773,21.5112862 46.5165427,21.5406514 C43.2641553,21.5937148 41.3793103,20.6220878 39.8769261,19.8900189 L38.7035561,25.6141693 C40.2167278,26.3379954 43.0047685,26.9675437 45.8903858,27 C52.6839673,27 57.1268863,23.494209 57.14699,18.0647408 L57.14699,18.0647408 Z M30.3737573,0.476540289 L19.8997266,26.5899178 L13.0674087,26.5899178 L7.91252436,5.74990937 C7.60018142,4.46814478 7.3280459,3.99727146 6.37826838,3.45581866 C4.82292803,2.57331756 2.25700872,1.74851648 0,1.2353985 L0.152984297,0.476540289 L11.1531437,0.476540289 C12.5540287,0.476540289 13.8146782,1.45177355 14.1353568,3.1379534 L16.8581831,18.2496899 L23.5826275,0.476540289 L30.3737573,0.476540289 Z"></path>
            </g>
        </g>
    </g>
</svg>